# xmcd CD database file
#
# Track frame offsets:
#	150
#	12737
#	25052
#	35787
#	48903
#	61907
#	74318
#	86118
#	99759
#	111534
#	122260
#	132088
#	144176
#	156586
#	167567
#	179018
#	191162
#	204148
#	217458
#	229824
#
# Disc length: 3225 seconds
#
# Revision: 0
# Processed by: cddbd v1.5.2PL0 Copyright (c) Steve Scherf et al.
# Submitted via: CDex 1.51
#
DISCID=240c9714
DTITLE=Hank Williams - I'm So Lonesome I Could Cry
DYEAR=1900
DGENRE=Country
TTITLE0=I ' mSo Lonesome I Could Cry
TTITLE1=Honky Tonkin
TTITLE2=Moain' The Blues
TTITLE3=Hey Good Lookin'
TTITLE4=Jambalaya
TTITLE5=Rootie Tootie
TTITLE6=Long Gone Lonesome Blues
TTITLE7=Ramblin' Man
TTITLE8=Why Should We Try Animore
TTITLE9=I Can't Help It  
TTITLE10=Honky Tonk Blues
TTITLE11=The Blues Come Around
TTITLE12=Move It On Over
TTITLE13=Lonesome Whistle
TTITLE14=My Bucket's Got A Hole In It
TTITLE15=Your Cheatin' Heart
TTITLE16=On The Banks Of The Old Pontchartrain
TTITLE17=You're Gonna Change
TTITLE18=I Could Never Be Ashamed Of You
TTITLE19=Cold Cold Heart
EXTD=
EXTT0=
EXTT1=
EXTT2=
EXTT3=
EXTT4=
EXTT5=
EXTT6=
EXTT7=
EXTT8=
EXTT9=
EXTT10=
EXTT11=
EXTT12=
EXTT13=
EXTT14=
EXTT15=
EXTT16=
EXTT17=
EXTT18=
EXTT19=
PLAYORDER=
